<?xml version="1.0" encoding="utf-8"?>
<!-- Generator: Adobe Illustrator 16.0.0, SVG Export Plug-In . SVG Version: 6.00 Build 0)  -->
<!DOCTYPE svg PUBLIC "-//W3C//DTD SVG 1.1//EN" "http://www.w3.org/Graphics/SVG/1.1/DTD/svg11.dtd">
<svg version="1.1" id="Layer_1" xmlns="http://www.w3.org/2000/svg" xmlns:xlink="http://www.w3.org/1999/xlink" x="0px" y="0px"
	 width="72px" height="72px" viewBox="0 0 72 72" enable-background="new 0 0 72 72" xml:space="preserve">
<g id="wG4reU_1_">
	<g>
		<path fill-rule="evenodd" clip-rule="evenodd" fill="#327AB6" d="M26.53,14.437c-5.276,0-10.553-0.05-15.829,0.022
			c-2.372,0.032-4.219-0.844-4.309-3.241c-0.097-2.586,2.036-3.312,4.236-3.271c11.354,0.209,22.721-0.574,34.062,0.454
			c12.791,1.16,23.704,12.665,25.084,25.349c1.706,15.676-8.981,28.311-21.527,31.399c-5.254,1.294-10.636,1.26-16.003,0.94
			c-2.047-0.124-3.227-1.434-3.071-3.422c0.157-2.003,1.613-2.928,3.589-2.954c3.144-0.043,6.292,0.021,9.432-0.11
			c9.831-0.417,18.199-7.228,20.666-16.734c2.531-9.753-1.522-19.705-9.937-25.007c-3.938-2.481-8.175-3.384-12.697-3.417
			C35.663,14.413,31.097,14.438,26.53,14.437z"/>
		<path fill-rule="evenodd" clip-rule="evenodd" fill="#2F78B5" d="M24.025,24.887c-5.785,0-11.57-0.007-17.354,0.003
			c-2.203,0.004-4.243-0.378-4.282-3.109c-0.039-2.727,1.908-3.21,4.178-3.196c12.075,0.076,24.157-0.106,36.223,0.25
			c9.312,0.275,16.689,8.729,16.646,18.313c-0.043,9.711-7.676,17.991-17.124,18.235c-8.619,0.226-17.248,0.123-25.872,0.169
			c-2.176,0.014-4.304-0.211-4.221-3.07c0.076-2.61,1.912-3.245,4.224-3.238c8.322,0.028,16.646,0.115,24.965-0.053
			c5.956-0.12,10.899-4.751,11.638-10.463c0.772-5.958-2.895-11.583-8.668-13.348c-1.482-0.453-2.996-0.491-4.519-0.492
			C34.58,24.884,29.303,24.887,24.025,24.887z"/>
		<path fill-rule="evenodd" clip-rule="evenodd" fill="#327AB6" d="M31.137,45.505c-3.348,0-6.698,0.033-10.046-0.013
			c-2.151-0.028-3.928-0.766-3.818-3.289c0.101-2.311,1.744-2.929,3.826-2.915c5.581,0.035,11.162,0.013,16.744,0.01
			c0.811,0,1.641,0.087,2.429-0.057c1.146-0.207,2.517-0.191,2.622-1.931c0.093-1.546-0.728-2.213-2.104-2.435
			c-2.244-0.363-3.277-1.723-2.649-3.868c0.613-2.095,2.269-2.622,4.362-2.168c4.119,0.891,7.119,4.525,6.866,8.44
			c-0.305,4.708-3.635,8.005-8.492,8.199C37.634,45.608,34.384,45.503,31.137,45.505z"/>
		<path fill-rule="evenodd" clip-rule="evenodd" fill="#327AB6" d="M28.871,35.435c-1.964,0.04-3.574,0.267-4.669-1.075
			c-1.212-1.484-0.986-3.014,0.324-4.326c1.393-1.395,6.682-1.311,7.938,0.171c1.188,1.403,1.171,2.964-0.062,4.372
			C31.316,35.816,29.772,35.286,28.871,35.435z"/>
	</g>
</g>
</svg>
